<?xml version="1.0" standalone="no"?>
<!DOCTYPE svg PUBLIC "-//W3C//DTD SVG 20010904//EN"
 "http://www.w3.org/TR/2001/REC-SVG-20010904/DTD/svg10.dtd">
<svg version="1.0" xmlns="http://www.w3.org/2000/svg"
 width="400.000000pt" height="400.000000pt" viewBox="0 0 400.000000 400.000000"
 preserveAspectRatio="xMidYMid meet">
<metadata>
Created by potrace 1.11, written by Peter Selinger 2001-2013
</metadata>
<g transform="translate(0.000000,400.000000) scale(0.100000,-0.100000)"
fill="#000000" stroke="none">
<path d="M0 2000 l0 -2000 2000 0 2000 0 0 2000 0 2000 -2000 0 -2000 0 0
-2000z m2038 986 c66 -42 81 -67 137 -237 30 -90 79 -238 108 -327 l54 -164
16 49 c51 161 79 250 107 343 53 176 79 243 109 280 87 108 236 108 323 -1 32
-40 40 -66 68 -234 11 -60 37 -218 60 -350 87 -507 88 -514 80 -549 -23 -102
-133 -156 -223 -109 -68 35 -78 65 -131 388 -25 154 -47 291 -48 305 -4 32 -3
38 -133 -400 -71 -238 -82 -261 -137 -293 -37 -21 -119 -22 -163 -1 -62 29
-84 78 -195 434 -69 221 -87 270 -94 263 -3 -3 -6 -21 -6 -39 0 -18 -4 -54 -9
-81 -10 -49 -14 -74 -51 -308 -27 -173 -43 -218 -88 -255 -31 -25 -45 -30 -91
-30 -43 0 -61 5 -88 26 -69 52 -84 104 -64 211 5 26 14 82 21 123 15 101 35
220 60 368 5 31 19 116 30 187 11 72 25 152 30 178 6 27 10 61 10 75 0 43 41
102 94 139 42 29 56 33 112 33 51 0 72 -5 102 -24z m-570 -15 c20 -11 45 -34
56 -51 39 -68 14 -155 -56 -191 -32 -16 -60 -19 -208 -19 l-170 0 0 -110 0
-110 154 0 c85 0 166 -4 181 -10 14 -5 39 -24 56 -42 25 -28 29 -40 29 -88 0
-48 -4 -60 -29 -88 -17 -18 -42 -37 -56 -42 -15 -6 -96 -10 -181 -10 l-154 0
0 -120 0 -120 170 0 c202 0 233 -10 269 -83 12 -24 21 -49 21 -57 0 -32 -43
-100 -76 -119 -33 -20 -50 -21 -297 -21 -294 0 -321 6 -368 71 l-24 34 -3 530
-3 530 23 45 c17 33 35 51 68 67 43 22 56 23 303 23 234 0 261 -2 295 -19z
m-724 -1660 c4 -5 3 -16 0 -25 -5 -13 -26 -16 -125 -16 l-119 0 0 -65 0 -65
109 0 c61 0 112 -4 115 -9 4 -5 3 -16 0 -25 -5 -13 -25 -16 -115 -16 l-109 0
0 -70 0 -69 123 -3 c114 -3 122 -4 122 -23 0 -19 -8 -20 -152 -23 l-153 -3 0
211 0 210 149 0 c83 0 152 -4 155 -9z m385 -8 c5 -10 20 -52 34 -93 14 -41 44
-124 66 -184 23 -60 41 -113 41 -117 0 -5 -11 -9 -25 -9 -21 0 -29 9 -45 46
-11 25 -20 52 -20 60 0 12 -16 14 -87 12 l-87 -3 -17 -50 c-18 -53 -37 -72
-62 -62 -18 7 -15 21 28 132 23 61 62 162 97 258 8 21 17 27 39 27 17 0 32 -7
38 -17z m592 1 c30 -15 59 -65 59 -102 0 -11 -11 -36 -25 -56 -25 -37 -25 -37
-6 -64 13 -19 21 -51 24 -104 5 -77 5 -78 -18 -78 -31 0 -35 8 -38 79 -4 91
-19 102 -126 99 l-86 -3 -1 -85 c0 -83 -1 -85 -25 -85 l-24 0 -3 195 c-1 107
0 200 2 207 8 20 228 18 267 -3z m346 -1 c19 -72 110 -308 117 -306 8 2 28 55
92 246 l26 77 39 0 39 0 0 -211 0 -210 -22 3 c-23 3 -23 6 -26 151 -1 81 -7
147 -11 147 -5 0 -31 -66 -58 -147 -45 -135 -52 -148 -75 -151 -13 -2 -29 3
-34 10 -6 7 -30 74 -54 148 -24 74 -45 137 -47 139 -11 15 -16 -26 -17 -151
l-1 -143 -25 0 -25 0 -3 195 c-1 107 0 200 2 207 8 20 77 17 83 -4z m594 -193
l0 -205 -23 0 -23 0 -3 195 c-1 107 0 200 3 208 3 7 14 12 26 10 20 -3 20 -8
20 -208z m261 28 l3 -183 105 -5 c97 -5 105 -7 105 -25 0 -19 -7 -20 -135 -20
l-135 0 -3 195 c-1 107 0 200 2 207 3 7 17 13 30 13 l26 0 2 -182z m439 85
c-2 -73 0 -93 11 -93 7 0 56 43 108 95 71 71 101 95 121 95 14 0 28 -2 31 -5
3 -3 -30 -40 -73 -82 -44 -42 -79 -81 -79 -86 0 -9 84 -136 132 -198 35 -47
35 -51 -4 -47 -27 3 -41 16 -99 98 -37 52 -74 96 -81 98 -8 1 -25 -9 -38 -23
-22 -23 -25 -37 -26 -98 -1 -69 -2 -72 -25 -72 l-24 0 -3 195 c-1 107 0 200 3
208 3 7 15 12 27 10 21 -3 22 -7 19 -95z"/>
<path d="M1059 1165 c-14 -41 -23 -77 -21 -80 9 -9 112 -5 112 4 0 4 -11 39
-25 77 -14 38 -25 70 -25 71 0 2 -3 3 -7 3 -5 0 -20 -34 -34 -75z"/>
<path d="M1506 1254 c-9 -23 -7 -97 3 -113 6 -10 30 -12 94 -10 95 4 116 17
117 72 0 51 -29 67 -124 67 -67 0 -85 -3 -90 -16z"/>
</g>
</svg>
