<?xml version="1.0" standalone="no"?>
<!DOCTYPE svg PUBLIC "-//W3C//DTD SVG 20010904//EN"
 "http://www.w3.org/TR/2001/REC-SVG-20010904/DTD/svg10.dtd">
<svg version="1.0" xmlns="http://www.w3.org/2000/svg"
 width="260.000000pt" height="260.000000pt" viewBox="0 0 260.000000 260.000000"
 preserveAspectRatio="xMidYMid meet">
<metadata>
Created by potrace 1.11, written by Peter Selinger 2001-2013
</metadata>
<g transform="translate(0.000000,260.000000) scale(0.100000,-0.100000)"
fill="#000000" stroke="none">
<path d="M1093 2555 c-17 -7 -37 -23 -43 -35 -18 -34 -14 -89 7 -119 32 -43
14 -91 -142 -391 -41 -80 -90 -188 -108 -240 l-32 -95 0 -725 0 -725 30 -53
c35 -64 71 -96 145 -131 54 -26 59 -26 315 -29 344 -4 408 8 488 97 78 86 72
19 72 846 l0 740 -34 90 c-18 50 -80 182 -137 295 -117 232 -137 289 -111 318
44 48 28 134 -29 158 -47 20 -376 19 -421 -1z m392 -71 c14 -15 14 -19 -5 -49
-42 -67 -25 -126 113 -400 53 -104 111 -233 129 -285 l33 -95 3 -682 c2 -490
0 -695 -9 -725 -15 -56 -89 -132 -144 -147 -55 -15 -555 -15 -606 0 -50 16
-105 61 -132 112 l-22 42 0 695 0 695 28 85 c16 47 80 189 144 316 99 200 115
239 120 294 5 50 2 70 -13 97 -30 57 -12 63 182 63 135 0 165 -3 179 -16z"/>
</g>
</svg>
